# This file uses centimeters as units for non-parametric coordinates.

mtllib body.mtl
g default
v 1.401719 0.792665 3.503088
v 1.401719 0.792665 -3.574878
v 1.401719 2.194694 3.503088
v 1.401719 1.515700 -3.574878
v -1.982380 2.194694 3.503088
v -1.982380 1.515700 -3.574878
v -1.982380 0.792665 3.503088
v -1.982380 0.792665 -3.574878
v 1.401719 2.607335 -1.470975
v -1.982380 2.607335 -1.470975
v -1.982380 0.792665 -1.470975
v 1.401719 0.792665 -1.470975
v 1.401719 2.607335 2.356029
v -1.982380 2.607335 2.356029
v -1.982380 0.792665 2.356029
v 1.401719 0.792665 2.356029
vt 0.375000 0.000000
vt 0.625000 0.000000
vt 0.375000 0.250000
vt 0.625000 0.250000
vt 0.375000 0.500000
vt 0.625000 0.500000
vt 0.375000 0.750000
vt 0.625000 0.750000
vt 0.375000 1.000000
vt 0.625000 1.000000
vt 0.875000 0.000000
vt 0.875000 0.250000
vt 0.125000 0.000000
vt 0.125000 0.250000
vt 0.543143 0.250000
vt 0.543143 0.500000
vt 0.543143 0.750000
vt 0.543143 0.000000
vt 0.543143 1.000000
vt 0.413775 0.250000
vt 0.413775 0.500000
vt 0.413775 0.750000
vt 0.413775 0.000000
vt 0.413775 1.000000
vn 1.000000 0.000000 -0.000000
vn 1.000000 0.000000 -0.000000
vn 1.000000 0.000000 0.000000
vn 1.000000 0.000000 -0.000000
vn -0.000000 0.940966 0.338501
vn -0.000000 0.996577 0.082674
vn -0.000000 0.996577 0.082674
vn -0.000000 0.940966 0.338501
vn -1.000000 0.000000 -0.000000
vn -1.000000 0.000000 0.000000
vn -1.000000 0.000000 -0.000000
vn -1.000000 0.000000 -0.000000
vn -0.000000 -1.000000 0.000000
vn -0.000000 -1.000000 0.000000
vn -0.000000 -1.000000 0.000000
vn -0.000000 -1.000000 0.000000
vn 0.000000 0.000000 -1.000000
vn 0.000000 0.000000 -1.000000
vn 0.000000 0.000000 -1.000000
vn 0.000000 0.000000 -1.000000
vn -0.000000 0.000000 1.000000
vn -0.000000 0.000000 1.000000
vn -0.000000 0.000000 1.000000
vn -0.000000 0.000000 1.000000
vn 0.000000 0.983480 -0.181018
vn 0.000000 0.887630 -0.460557
vn 0.000000 0.887630 -0.460557
vn 0.000000 0.983480 -0.181018
vn -1.000000 0.000000 0.000000
vn -1.000000 0.000000 0.000000
vn -1.000000 0.000000 -0.000000
vn -1.000000 0.000000 -0.000000
vn 0.000000 -1.000000 -0.000000
vn 0.000000 -1.000000 -0.000000
vn 0.000000 -1.000000 0.000000
vn 0.000000 -1.000000 0.000000
vn 1.000000 0.000000 0.000000
vn 1.000000 0.000000 0.000000
vn 1.000000 0.000000 -0.000000
vn 1.000000 0.000000 -0.000000
s 1
g pCube1 group1
usemtl lambert4SG
f 1/1/1 16/23/2 13/20/3 3/3/4
s 2
f 3/3/5 13/20/6 14/21/7 5/5/8
s 3
f 5/5/9 14/21/10 15/22/11 7/7/12
s 4
f 7/7/13 15/22/14 16/24/15 1/9/16
s off
f 2/2/17 8/11/18 6/12/19 4/4/20
f 7/13/21 1/1/22 3/3/23 5/14/24
s 2
f 9/15/25 4/4/26 6/6/27 10/16/28
s 3
f 11/17/29 10/16/30 6/6/31 8/8/32
s 4
f 12/19/33 11/17/34 8/8/35 2/10/36
s 1
f 9/15/37 12/18/38 2/2/39 4/4/40
s 2
f 13/20/6 9/15/25 10/16/28 14/21/7
s 3
f 15/22/11 14/21/10 10/16/30 11/17/29
s 4
f 16/24/15 15/22/14 11/17/34 12/19/33
s 1
f 13/20/3 16/23/2 12/18/38 9/15/37
