# This file uses centimeters as units for non-parametric coordinates.

mtllib che.mtl
g default
v 1.727646 0.221809 -1.389569
v 1.727646 0.221809 -2.389569
v 1.727646 1.221809 -1.389569
v 1.727646 1.221809 -2.389569
v 0.727646 1.221809 -1.389569
v 0.727646 1.221809 -2.389569
v 0.727646 0.221809 -1.389569
v 0.727646 0.221809 -2.389569
vt 0.375000 0.000000
vt 0.625000 0.000000
vt 0.375000 0.250000
vt 0.625000 0.250000
vt 0.375000 0.500000
vt 0.625000 0.500000
vt 0.375000 0.750000
vt 0.625000 0.750000
vt 0.375000 1.000000
vt 0.625000 1.000000
vt 0.875000 0.000000
vt 0.875000 0.250000
vt 0.125000 0.000000
vt 0.125000 0.250000
vn 1.000000 0.000000 0.000000
vn 1.000000 0.000000 0.000000
vn 1.000000 0.000000 0.000000
vn 1.000000 0.000000 0.000000
vn 0.000000 1.000000 0.000000
vn 0.000000 1.000000 0.000000
vn 0.000000 1.000000 0.000000
vn 0.000000 1.000000 0.000000
vn -1.000000 0.000000 -0.000000
vn -1.000000 0.000000 -0.000000
vn -1.000000 0.000000 -0.000000
vn -1.000000 0.000000 -0.000000
vn 0.000000 -1.000000 0.000000
vn 0.000000 -1.000000 0.000000
vn 0.000000 -1.000000 0.000000
vn 0.000000 -1.000000 0.000000
vn 0.000000 0.000000 -1.000000
vn 0.000000 0.000000 -1.000000
vn 0.000000 0.000000 -1.000000
vn 0.000000 0.000000 -1.000000
vn -0.000000 0.000000 1.000000
vn -0.000000 0.000000 1.000000
vn -0.000000 0.000000 1.000000
vn -0.000000 0.000000 1.000000
s off
g pCube2 group1
usemtl lambert3SG
f 1/1/1 2/2/2 4/4/3 3/3/4
f 3/3/5 4/4/6 6/6/7 5/5/8
f 5/5/9 6/6/10 8/8/11 7/7/12
f 7/7/13 8/8/14 2/10/15 1/9/16
f 2/2/17 8/11/18 6/12/19 4/4/20
f 7/13/21 1/1/22 3/3/23 5/14/24
g default
v 1.401719 0.757001 3.503088
v 1.401719 0.757001 -3.574878
v 1.401719 2.159030 3.503088
v 1.401719 1.480036 -3.574878
v -1.982380 2.159030 3.503088
v -1.982380 1.480036 -3.574878
v -1.982380 0.757001 3.503088
v -1.982380 0.757001 -3.574878
v 1.401719 2.571671 -1.470975
v -1.982380 2.571671 -1.470975
v -1.982380 0.757001 -1.470975
v 1.401719 0.757001 -1.470975
v 1.401719 2.571671 2.356029
v -1.982380 2.571671 2.356029
v -1.982380 0.757001 2.356029
v 1.401719 0.757001 2.356029
vt 0.375000 0.000000
vt 0.625000 0.000000
vt 0.375000 0.250000
vt 0.625000 0.250000
vt 0.375000 0.500000
vt 0.625000 0.500000
vt 0.375000 0.750000
vt 0.625000 0.750000
vt 0.375000 1.000000
vt 0.625000 1.000000
vt 0.875000 0.000000
vt 0.875000 0.250000
vt 0.125000 0.000000
vt 0.125000 0.250000
vt 0.543143 0.250000
vt 0.543143 0.500000
vt 0.543143 0.750000
vt 0.543143 0.000000
vt 0.543143 1.000000
vt 0.413775 0.250000
vt 0.413775 0.500000
vt 0.413775 0.750000
vt 0.413775 0.000000
vt 0.413775 1.000000
vn 1.000000 0.000000 -0.000000
vn 1.000000 0.000000 -0.000000
vn 1.000000 0.000000 0.000000
vn 1.000000 0.000000 -0.000000
vn -0.000000 0.940966 0.338501
vn -0.000000 0.996577 0.082674
vn -0.000000 0.996577 0.082674
vn -0.000000 0.940966 0.338501
vn -1.000000 0.000000 -0.000000
vn -1.000000 0.000000 0.000000
vn -1.000000 0.000000 -0.000000
vn -1.000000 0.000000 -0.000000
vn -0.000000 -1.000000 0.000000
vn -0.000000 -1.000000 0.000000
vn -0.000000 -1.000000 0.000000
vn -0.000000 -1.000000 0.000000
vn 0.000000 0.000000 -1.000000
vn 0.000000 0.000000 -1.000000
vn 0.000000 0.000000 -1.000000
vn 0.000000 0.000000 -1.000000
vn -0.000000 0.000000 1.000000
vn -0.000000 0.000000 1.000000
vn -0.000000 0.000000 1.000000
vn -0.000000 0.000000 1.000000
vn 0.000000 0.983480 -0.181018
vn 0.000000 0.887630 -0.460557
vn 0.000000 0.887630 -0.460557
vn 0.000000 0.983480 -0.181018
vn -1.000000 0.000000 0.000000
vn -1.000000 0.000000 0.000000
vn -1.000000 0.000000 -0.000000
vn -1.000000 0.000000 -0.000000
vn 0.000000 -1.000000 -0.000000
vn 0.000000 -1.000000 -0.000000
vn 0.000000 -1.000000 0.000000
vn 0.000000 -1.000000 0.000000
vn 1.000000 0.000000 0.000000
vn 1.000000 0.000000 0.000000
vn 1.000000 0.000000 -0.000000
vn 1.000000 0.000000 -0.000000
s 1
g group1 pCube1
usemtl lambert4SG
f 9/15/25 24/37/26 21/34/27 11/17/28
s 2
f 11/17/29 21/34/30 22/35/31 13/19/32
s 3
f 13/19/33 22/35/34 23/36/35 15/21/36
s 4
f 15/21/37 23/36/38 24/38/39 9/23/40
s off
f 10/16/41 16/25/42 14/26/43 12/18/44
f 15/27/45 9/15/46 11/17/47 13/28/48
s 2
f 17/29/49 12/18/50 14/20/51 18/30/52
s 3
f 19/31/53 18/30/54 14/20/55 16/22/56
s 4
f 20/33/57 19/31/58 16/22/59 10/24/60
s 1
f 17/29/61 20/32/62 10/16/63 12/18/64
s 2
f 21/34/30 17/29/49 18/30/52 22/35/31
s 3
f 23/36/35 22/35/34 18/30/54 19/31/53
s 4
f 24/38/39 23/36/38 19/31/58 20/33/57
s 1
f 21/34/27 24/37/26 20/32/62 17/29/61
g default
v 1.727646 0.221809 2.223463
v 1.727646 0.221809 1.223463
v 1.727646 1.221809 2.223463
v 1.727646 1.221809 1.223463
v 0.727646 1.221809 2.223463
v 0.727646 1.221809 1.223463
v 0.727646 0.221809 2.223463
v 0.727646 0.221809 1.223463
vt 0.375000 0.000000
vt 0.625000 0.000000
vt 0.375000 0.250000
vt 0.625000 0.250000
vt 0.375000 0.500000
vt 0.625000 0.500000
vt 0.375000 0.750000
vt 0.625000 0.750000
vt 0.375000 1.000000
vt 0.625000 1.000000
vt 0.875000 0.000000
vt 0.875000 0.250000
vt 0.125000 0.000000
vt 0.125000 0.250000
vn 1.000000 0.000000 0.000000
vn 1.000000 0.000000 0.000000
vn 1.000000 0.000000 0.000000
vn 1.000000 0.000000 0.000000
vn 0.000000 1.000000 0.000000
vn 0.000000 1.000000 0.000000
vn 0.000000 1.000000 0.000000
vn 0.000000 1.000000 0.000000
vn -1.000000 0.000000 -0.000000
vn -1.000000 0.000000 -0.000000
vn -1.000000 0.000000 -0.000000
vn -1.000000 0.000000 -0.000000
vn 0.000000 -1.000000 0.000000
vn 0.000000 -1.000000 0.000000
vn 0.000000 -1.000000 0.000000
vn 0.000000 -1.000000 0.000000
vn 0.000000 0.000000 -1.000000
vn 0.000000 0.000000 -1.000000
vn 0.000000 0.000000 -1.000000
vn 0.000000 0.000000 -1.000000
vn -0.000000 0.000000 1.000000
vn -0.000000 0.000000 1.000000
vn -0.000000 0.000000 1.000000
vn -0.000000 0.000000 1.000000
s off
g group1 pCube3
usemtl lambert3SG
f 25/39/65 26/40/66 28/42/67 27/41/68
f 27/41/69 28/42/70 30/44/71 29/43/72
f 29/43/73 30/44/74 32/46/75 31/45/76
f 31/45/77 32/46/78 26/48/79 25/47/80
f 26/40/81 32/49/82 30/50/83 28/42/84
f 31/51/85 25/39/86 27/41/87 29/52/88
g default
v -1.380097 0.221809 -1.382925
v -1.380097 0.221809 -2.382925
v -1.380097 1.221809 -1.382925
v -1.380097 1.221809 -2.382925
v -2.380097 1.221809 -1.382925
v -2.380097 1.221809 -2.382925
v -2.380097 0.221809 -1.382925
v -2.380097 0.221809 -2.382925
vt 0.375000 0.000000
vt 0.625000 0.000000
vt 0.375000 0.250000
vt 0.625000 0.250000
vt 0.375000 0.500000
vt 0.625000 0.500000
vt 0.375000 0.750000
vt 0.625000 0.750000
vt 0.375000 1.000000
vt 0.625000 1.000000
vt 0.875000 0.000000
vt 0.875000 0.250000
vt 0.125000 0.000000
vt 0.125000 0.250000
vn 1.000000 0.000000 0.000000
vn 1.000000 0.000000 0.000000
vn 1.000000 0.000000 0.000000
vn 1.000000 0.000000 0.000000
vn 0.000000 1.000000 0.000000
vn 0.000000 1.000000 0.000000
vn 0.000000 1.000000 0.000000
vn 0.000000 1.000000 0.000000
vn -1.000000 0.000000 -0.000000
vn -1.000000 0.000000 -0.000000
vn -1.000000 0.000000 -0.000000
vn -1.000000 0.000000 -0.000000
vn 0.000000 -1.000000 0.000000
vn 0.000000 -1.000000 0.000000
vn 0.000000 -1.000000 0.000000
vn 0.000000 -1.000000 0.000000
vn 0.000000 0.000000 -1.000000
vn 0.000000 0.000000 -1.000000
vn 0.000000 0.000000 -1.000000
vn 0.000000 0.000000 -1.000000
vn -0.000000 0.000000 1.000000
vn -0.000000 0.000000 1.000000
vn -0.000000 0.000000 1.000000
vn -0.000000 0.000000 1.000000
s off
g group1 pCube5
usemtl lambert3SG
f 33/53/89 34/54/90 36/56/91 35/55/92
f 35/55/93 36/56/94 38/58/95 37/57/96
f 37/57/97 38/58/98 40/60/99 39/59/100
f 39/59/101 40/60/102 34/62/103 33/61/104
f 34/54/105 40/63/106 38/64/107 36/56/108
f 39/65/109 33/53/110 35/55/111 37/66/112
g default
v -1.380097 0.221809 2.223463
v -1.380097 0.221809 1.223463
v -1.380097 1.221809 2.223463
v -1.380097 1.221809 1.223463
v -2.380097 1.221809 2.223463
v -2.380097 1.221809 1.223463
v -2.380097 0.221809 2.223463
v -2.380097 0.221809 1.223463
vt 0.375000 0.000000
vt 0.625000 0.000000
vt 0.375000 0.250000
vt 0.625000 0.250000
vt 0.375000 0.500000
vt 0.625000 0.500000
vt 0.375000 0.750000
vt 0.625000 0.750000
vt 0.375000 1.000000
vt 0.625000 1.000000
vt 0.875000 0.000000
vt 0.875000 0.250000
vt 0.125000 0.000000
vt 0.125000 0.250000
vn 1.000000 0.000000 0.000000
vn 1.000000 0.000000 0.000000
vn 1.000000 0.000000 0.000000
vn 1.000000 0.000000 0.000000
vn 0.000000 1.000000 0.000000
vn 0.000000 1.000000 0.000000
vn 0.000000 1.000000 0.000000
vn 0.000000 1.000000 0.000000
vn -1.000000 0.000000 -0.000000
vn -1.000000 0.000000 -0.000000
vn -1.000000 0.000000 -0.000000
vn -1.000000 0.000000 -0.000000
vn 0.000000 -1.000000 0.000000
vn 0.000000 -1.000000 0.000000
vn 0.000000 -1.000000 0.000000
vn 0.000000 -1.000000 0.000000
vn 0.000000 0.000000 -1.000000
vn 0.000000 0.000000 -1.000000
vn 0.000000 0.000000 -1.000000
vn 0.000000 0.000000 -1.000000
vn -0.000000 0.000000 1.000000
vn -0.000000 0.000000 1.000000
vn -0.000000 0.000000 1.000000
vn -0.000000 0.000000 1.000000
s off
g group1 pCube4
usemtl lambert3SG
f 41/67/113 42/68/114 44/70/115 43/69/116
f 43/69/117 44/70/118 46/72/119 45/71/120
f 45/71/121 46/72/122 48/74/123 47/73/124
f 47/73/125 48/74/126 42/76/127 41/75/128
f 42/68/129 48/77/130 46/78/131 44/70/132
f 47/79/133 41/67/134 43/69/135 45/80/136
